<?xml version="1.0" encoding="utf-8"?>
<!-- Generator: Adobe Illustrator 16.0.0, SVG Export Plug-In . SVG Version: 6.00 Build 0)  -->
<!DOCTYPE svg PUBLIC "-//W3C//DTD SVG 1.1//EN" "http://www.w3.org/Graphics/SVG/1.1/DTD/svg11.dtd">
<svg version="1.1" xmlns="http://www.w3.org/2000/svg" xmlns:xlink="http://www.w3.org/1999/xlink" x="0px" y="0px" width="400px"
	 height="400px" viewBox="0 0 400 400" enable-background="new 0 0 400 400" xml:space="preserve">
<g id="Layer_1">
	<path fill="#F1BE54" d="M263.549,94.088c0.432-0.107,1.715-2.683,1.715-2.683s2.686,1.179,3.65,0.43
		c0.967-0.749,1.232-6.759,1.555-8.263c0.322-1.501,2.254-3.433,2.254-3.433s1.287-3.005,1.287-3.649c0,0,11.004,1.393,13.686-1.609
		c2.68-3.003,8.525-26.823-7.893-39.859c-16.416-13.037-30.9-13.198-33.475-11.266c0,0-12.877-4.506-15.291-3.38
		c-2.414,1.127-1.449,7.404-1.449,7.404s-2.252,0.322-2.734,1.771c-0.484,1.448,0.643,5.633,0.643,5.633s-4.99,6.116-5.473,7.726
		c-0.482,1.609,5.15,9.818,4.668,10.301s-0.805,3.058-2.094,3.219c-1.285,0.161-9.681-1.761-23.658-0.644
		c0,0-22.688,1.287-34.919,5.794c-12.231,4.506-39.271,16.522-55.154,39.054c-15.878,22.532-27.034,43.991-18.237,65.666
		c8.435,20.792,34.83,39.592,36.973,41.094c-4.899,10.439-13.907,29.459-15.3,31.01c-1.932,2.146,5.794,11.373,5.794,11.373
		s8.797-15.449,10.084-15.449c1.143,0,15.828,17.6,19.077,21.518c-1.212,1.842-2.364,3.889-3.41,6.164
		c-8.369,18.24-15.023,28.113-15.023,28.113s-0.859-0.43-3.862,2.145c-3.003,2.576-10.296,4.938-15.234,9.443
		c-4.935,4.506-5.583,9.227-5.367,10.514c0.217,1.289,24.036,31.332,30.69,34.764c6.649,3.434,17.81,3.863,21.029,1.289
		c3.219-2.576-4.935-5.365-9.657-12.445c-4.723-7.082-9.229-19.744-6.654-24.895s4.29-7.295,3.863-7.939
		c-0.428-0.643-0.428-2.148-0.428-2.148l32.616-30.256c0,0-2.575,7.725-0.211,10.086c2.358,2.361,12.231,2.789,24.249,3.006
		c12.014,0.213,20.383,4.289,24.678,4.289c4.291,0,12.232-0.857,14.164-3.432c1.932-2.576-2.148-8.584-7.516-10.301
		c-5.359-1.719-21.459-4.721-24.463-7.725c-3.002-3.006,0.432-14.164,0.432-14.164s18.672-29.611,25.965-44.852
		c7.297-15.234,9.012-27.466,6.863-31.329c-2.143-3.863-26.178-22.749-45.274-31.332c-13.479-6.061-24.68-10.944-24.68-10.944
		s4.506-5.153,7.514-6.224c0,0,19.63,5.366,27.999,0.86c8.369-4.507,15.129-20.279,15.129-20.279s18.453,29.29,20.174,32.295
		c1.715,3.005,4.723,13.303,16.521,21.889c11.805,8.585,18.67,14.593,18.67,14.593l7.727-6.008c0,0-19.742-33.049-26.18-39.487
		c-6.438-6.438-18.453-39.054-18.453-39.054s2.143,0.536,6.328,3.271c1.844,1.205,6.385,5.525,8.479,5.581
		c2.092,0.053,3.541-3.435,4.234-4.454c0.699-1.019,0.754-0.913,1.77-1.288c1.021-0.375,0.645-1.502,0.645-1.502
		S263.121,94.194,263.549,94.088z M161.554,243.537c-2.087-4.898-5.02-11.764-7.564-17.639c7.962,6.166,14.853,11.699,15.033,12.504
		C169.225,239.313,165.945,240.574,161.554,243.537z M199.281,219.732c0,2.146-6.654-9.871-6.654-9.871l10.516,0.214
		C203.143,210.075,199.281,217.59,199.281,219.732z M211.08,192.049c3.436,0.43-5.15,8.369-5.15,8.369l-18.453,0.217
		c0,0-13.947-19.313-16.095-22.963C171.382,177.672,207.65,191.622,211.08,192.049z"/>
	<path fill="#F1BE54" d="M165.341,260.102c0,0,10.024,31.85,17.101,33.621c7.077,1.768,70.188-69.891,74.316-76.086
		c4.125-6.193-13.271-9.141-28.311-9.141v-6.191c0,0,48.359-12.679,49.244-13.859c0.885-1.179-7.373-3.538-6.191-7.079
		c1.176-3.536,6.779-7.959,6.779-7.959l6.488-5.897c0,0,8.848,3.539,7.961,5.015c-0.885,1.474,7.078-5.015,16.811-5.309
		c9.73-0.294,15.043-0.002,17.402-2.361c2.357-2.359,7.961-16.809,9.436-16.809c1.473,0,5.602,3.541,5.602,3.541
		s-9.143,18.283-13.564,20.053c-4.426,1.771-20.939,0.588-24.182,2.062c-3.244,1.476-11.205,8.847-11.205,8.847
		s18.578,13.567,21.229,18.286c2.654,4.717-4.42,4.129-5.895,2.652c-1.479-1.473-17.693-12.091-17.693-12.091l-4.131,4.718
		l34.207,96.725l-6.488,3.539l-38.336-71.656c0,0-15.627,11.498-42.166,45.41c-26.541,33.912-49.839,63.107-57.801,63.107
		c-7.961,0-10.913-43.35-16.808-57.211"/>
	<path fill="#F1BE54" d="M215.244,98.832c0,0,20.813,67.109,22.006,70.458c1.188,3.355-16.6,6.568-16.6,6.568
		s-19.102-53.921-20.928-59.766"/>
	<path fill="#F1BE54" d="M226.676,141.905c0,0,44.205,25.072,56.945,34.91l2.938,5.684l-1.498,6.609c0,0-56.232-20.068-62.582-24.21
		"/>
</g>
<g id="Layer_3" >
	<path fill="#F1BE54" d="M78.325,225.098C35.065,225.098,0,260.164,0,303.424s35.065,78.324,78.325,78.324
		c43.259,0,78.325-35.064,78.325-78.324S121.584,225.098,78.325,225.098z M139.912,303.424c0,7.605-1.389,14.883-3.908,21.609
		l-42.118-17.563c0.338-1.295,0.534-2.646,0.534-4.047c0-0.123-0.016-0.242-0.016-0.367h45.498
		C139.907,303.182,139.912,303.301,139.912,303.424z M16.733,303.424c0-0.123,0.01-0.242,0.01-0.367h45.502
		c0,0.125-0.015,0.244-0.015,0.367c0,1.373,0.191,2.695,0.513,3.967L20.535,324.76C18.081,318.109,16.733,310.922,16.733,303.424z
		 M88.224,290.75c-1.007-0.785-2.103-1.455-3.274-1.984l17.518-42.016c6.689,2.854,12.766,6.865,17.991,11.77L88.224,290.75z
		 M83.088,288.045c-1.202-0.371-2.465-0.584-3.767-0.666v-45.521c7.504,0.119,14.676,1.578,21.295,4.154L83.088,288.045z
		 M77.329,287.379c-1.277,0.078-2.521,0.289-3.702,0.648l-17.331-42.121c6.548-2.51,13.63-3.93,21.033-4.049V287.379z
		 M71.762,288.736c-1.197,0.537-2.313,1.215-3.34,2.016L36.192,258.52c5.296-4.969,11.458-9.021,18.253-11.881L71.762,288.736z
		 M62.422,301.064H16.793c0.287-7.635,1.952-14.914,4.773-21.59l42.007,17.516C63.015,298.27,62.633,299.637,62.422,301.064z
		 M66.969,314.826c1.111,1.109,2.389,2.053,3.786,2.799l-17.527,42.039c-6.905-3.088-13.146-7.393-18.429-12.668L66.969,314.826z
		 M72.576,318.443c1.489,0.572,3.088,0.922,4.753,1.025v45.52c-7.871-0.125-15.386-1.723-22.271-4.537L72.576,318.443z
		 M79.321,319.469c1.639-0.102,3.208-0.443,4.677-0.998l17.317,42.088c-6.815,2.746-14.229,4.307-21.994,4.43V319.469z
		 M85.819,317.662c1.429-0.754,2.73-1.707,3.862-2.836l32.169,32.17c-5.352,5.346-11.684,9.695-18.7,12.791L85.819,317.662z
		 M94.229,301.064c-0.206-1.402-0.578-2.748-1.121-4.008l42.082-17.314c2.751,6.604,4.381,13.789,4.662,21.322H94.229z
		 M134.38,277.92l-42.188,17.355c-0.694-1.17-1.509-2.252-2.465-3.209l32.17-32.168C127.066,265.074,131.306,271.174,134.38,277.92z
		 M34.749,259.898l32.174,32.168c-0.936,0.941-1.745,2.002-2.424,3.148l-42.113-17.563
		C25.449,271.014,29.648,265.008,34.749,259.898z M21.265,326.615l42.087-17.318c0.574,1.461,1.349,2.813,2.299,4.025l-32.229,32.23
		C28.286,340.084,24.142,333.676,21.265,326.615z M123.229,345.557l-32.234-32.232c0.935-1.193,1.704-2.52,2.278-3.951
		l42.001,17.516C132.402,333.846,128.299,340.154,123.229,345.557z"/>
		<animateTransform attributeName="transform"
                          attributeType="XML"
                          type="rotate"
                          from="0 78.325 303.423"
                          to="360 78.325 303.423"
                          dur="2s"
                          repeatCount="indefinite"/>
</g>
<g id="Layer_2">
	<path fill="#F1BE54" d="M321.676,225.098c-43.26,0-78.326,35.066-78.326,78.326s35.066,78.324,78.326,78.324
		c43.258,0,78.324-35.064,78.324-78.324S364.934,225.098,321.676,225.098z M383.262,303.424c0,7.605-1.389,14.883-3.908,21.609
		l-42.117-17.563c0.338-1.295,0.533-2.646,0.533-4.047c0-0.123-0.016-0.242-0.016-0.367h45.496
		C383.256,303.182,383.262,303.301,383.262,303.424z M260.084,303.424c0-0.123,0.01-0.242,0.01-0.367h45.5
		c0,0.125-0.014,0.244-0.014,0.367c0,1.373,0.191,2.695,0.514,3.967l-42.209,17.369
		C261.432,318.109,260.084,310.922,260.084,303.424z M331.572,290.75c-1.006-0.785-2.104-1.455-3.273-1.984l17.518-42.016
		c6.689,2.854,12.766,6.865,17.99,11.77L331.572,290.75z M326.438,288.045c-1.203-0.371-2.465-0.584-3.768-0.666v-45.521
		c7.504,0.119,14.676,1.578,21.295,4.154L326.438,288.045z M320.68,287.379c-1.279,0.078-2.52,0.289-3.703,0.648l-17.33-42.121
		c6.547-2.51,13.629-3.93,21.033-4.049V287.379z M315.111,288.736c-1.197,0.537-2.314,1.215-3.34,2.016l-32.23-32.232
		c5.297-4.969,11.459-9.021,18.254-11.881L315.111,288.736z M305.771,301.064h-45.629c0.287-7.635,1.951-14.914,4.773-21.59
		l42.008,17.516C306.365,298.27,305.982,299.637,305.771,301.064z M310.316,314.826c1.113,1.109,2.391,2.053,3.789,2.799
		l-17.529,42.039c-6.904-3.088-13.146-7.393-18.428-12.668L310.316,314.826z M315.926,318.443c1.488,0.572,3.088,0.922,4.754,1.025
		v45.52c-7.871-0.125-15.387-1.723-22.271-4.537L315.926,318.443z M322.67,319.469c1.641-0.102,3.211-0.443,4.678-0.998
		l17.316,42.088c-6.814,2.746-14.229,4.307-21.994,4.43V319.469z M329.168,317.662c1.43-0.754,2.732-1.707,3.863-2.836l32.17,32.17
		c-5.352,5.346-11.686,9.695-18.701,12.791L329.168,317.662z M337.578,301.064c-0.207-1.402-0.578-2.748-1.121-4.008l42.08-17.314
		c2.752,6.604,4.381,13.789,4.662,21.322H337.578z M377.729,277.92l-42.188,17.355c-0.693-1.17-1.508-2.252-2.465-3.209
		l32.17-32.168C370.416,265.074,374.656,271.174,377.729,277.92z M278.098,259.898l32.174,32.168
		c-0.934,0.941-1.744,2.002-2.424,3.148l-42.111-17.563C268.799,271.014,272.998,265.008,278.098,259.898z M264.615,326.615
		l42.086-17.318c0.574,1.461,1.348,2.813,2.299,4.025l-32.229,32.23C271.637,340.084,267.492,333.676,264.615,326.615z
		 M366.578,345.557l-32.234-32.232c0.936-1.193,1.705-2.52,2.277-3.951l42.002,17.516
		C375.752,333.846,371.648,340.154,366.578,345.557z"/>
		<animateTransform attributeName="transform"
                          attributeType="XML"
                          type="rotate"
                          from="0 321.675 303.423"
                          to="360 321.675 303.423"
                          dur="2s"
                          repeatCount="indefinite"/>
</g>
</svg>
