<?xml version="1.0" encoding="utf-8"?>
<!-- Generator: Adobe Illustrator 16.0.0, SVG Export Plug-In . SVG Version: 6.00 Build 0)  -->
<!DOCTYPE svg PUBLIC "-//W3C//DTD SVG 1.1//EN" "http://www.w3.org/Graphics/SVG/1.1/DTD/svg11.dtd">
<svg version="1.1" id="Layer_1" xmlns="http://www.w3.org/2000/svg" xmlns:xlink="http://www.w3.org/1999/xlink" x="0px" y="0px"
	 width="200px" height="200px" viewBox="0 0 200 200" enable-background="new 0 0 200 200" xml:space="preserve">
<path fill="#96AFDB" d="M133.533,26.049H66.468c-4.61,0-8.342,3.772-8.342,8.384l-0.041,75.446l16.766-16.765h58.683
	c4.607,0,8.382-3.774,8.382-8.384V34.433C141.915,29.822,138.141,26.049,133.533,26.049z M104.19,63.773h-8.383V38.624h8.383V63.773
	z M104.19,80.54h-8.383v-8.384h8.383V80.54z"/>
<path fill="none" d="M71.581,28.867h50.197v50.197H71.581V28.867z"/>
<text transform="matrix(1 0 0 1 -4.882813e-004 139.7607)"><tspan x="0" y="0" fill="#96AFDB" font-family="'Verdana'" font-size="22.7443">An error occured,</tspan><tspan x="12.155" y="27.293" fill="#96AFDB" font-family="'Verdana'" font-size="22.7443">Try again later.</tspan></text>
</svg>
