<?xml version="1.0" encoding="utf-8"?>
<!-- Generator: Adobe Illustrator 21.0.2, SVG Export Plug-In . SVG Version: 6.00 Build 0)  -->
<svg version="1.1" id="Layer_1" xmlns="http://www.w3.org/2000/svg" xmlns:xlink="http://www.w3.org/1999/xlink" x="0px" y="0px"
	 viewBox="0 0 222.3 119.3" style="enable-background:new 0 0 222.3 119.3;" xml:space="preserve">
<style type="text/css">
	.st0{fill:none;}
	.st1{fill:#F1BE54;}
</style>
<path class="st0" d="M37.9,32.2h-5c-1.1,0-2,0.9-2,2v5.3h8.9v-5.3C39.8,33.1,38.9,32.2,37.9,32.2z"/>
<path class="st0" d="M38.7,40.6h-6.6c-1,0-1.9,1-1.9,2.3v38.3h10.4V42.9C40.6,41.6,39.7,40.6,38.7,40.6z"/>
<path class="st1" d="M69.5,0h-9.9c-0.7,0-1,0.3-1.2,0.8H47.1c-1.7,0-2.2,0.8-3.2,1.7c-0.7,0.7-1.8,2.4-3.9,2.4c-2.3,0-2.3,0-2.3,0
	s0.3-1.4-2.3-1.4S33,4.9,33,4.9s0,0-2.3,0c-2.1,0-3.1-1.7-3.9-2.4c-1-1-1.5-1.7-3.2-1.7H12.4C12.3,0.3,11.9,0,11.3,0h-10
	C0.3,0,0,0.8,0,1.8s0.3,1.8,1.3,1.8h9.9c0.4,0,0.7-0.1,0.9-0.4h5.5c0,0-0.2,2.5-4.9,2.5c-3.8,0-4.3,0-4.3,0L6.8,7.1h2.1
	c0,0-0.2-0.4,7-0.4c4.1,0,4.7-3.5,4.7-3.5H24c0,0,0.7,0.8,1.9,2.1c1.1,1.1,3,2,4.8,2h3c0,0,0,5.6,0,6.9s-1.2,3.3-1.2,6.5
	s0,6.1,0,7.1s1.2,0.6,1.2,1s0,1,0,1h-2.1c-1.7,0-3,1.4-3,3v6c-0.6,0.5-0.9,1.2-0.9,2v38.9h-2.2V69.5v-1.4H24h-0.7
	c-0.2-0.3-0.6-0.5-1-0.5h-6.5c-0.7,0-1.2,0.5-1.2,1.2s0.5,1.2,1.2,1.2h6.5c0.4,0,0.7-0.2,1-0.5H24v10.3v1.4l0,0h1.4l0,0h2.2l0,0
	c0,0.8,0.7,1.5,1.5,1.5s1.5-0.7,1.5-1.5l0,0H32v34.7l0,0c0,1.9,1.5,3.4,3.4,3.4s3.4-1.5,3.4-3.4l0,0V81.2h1.3l0,0
	c0,0.8,0.7,1.5,1.5,1.5s1.5-0.7,1.5-1.5l0,0h2.2v10.3v1.4h1.4h0.7c0.2,0.3,0.6,0.5,1,0.5h6.5c0.7,0,1.2-0.5,1.2-1.2S55.6,91,54.9,91
	h-6.5c-0.4,0-0.7,0.2-1,0.5h-0.7V81.2v-1.4h-1.4h-2.2V40.9c0-0.8-0.4-1.5-0.9-2v-6c0-1.7-1.4-3-3-3h-2.1c0,0,0-0.6,0-1s1.2,0,1.2-1
	s0-3.9,0-7.1s-1.2-5.2-1.2-6.5s0-6.9,0-6.9h3c1.8,0,3.7-0.9,4.8-2c1.2-1.2,1.9-2.1,1.9-2.1h3.4c0,0,0.7,3.5,4.7,3.5
	c7.2,0,7,0.4,7,0.4H64l-1.7-1.4c0,0-0.5,0-4.3,0c-4.7,0-4.9-2.5-4.9-2.5h5.5c0.2,0.2,0.5,0.4,0.9,0.4h9.9c1.1,0,1.3-0.8,1.3-1.8
	C70.8,0.8,70.5,0,69.5,0z M40.1,79.8h-1.3V45c0-1.9-1.5-3.4-3.4-3.4S32,43.2,32,45v34.7h-1.3V42.9c0-1.3,0.8-2.3,1.9-2.3h5.8
	c1,0,1.9,1,1.9,2.3L40.1,79.8L40.1,79.8z M37.9,32.2c1.1,0,2,0.9,2,2v3.9H31v-3.9c0-1.1,0.9-2,2-2H37.9z"/>
<path class="st1" d="M220,44.2c-1.5-3.2-3.6-5.8-6.2-7.7c-2.6-1.9-5.3-3-8-3.6c-2.8-0.5-6.7-0.8-11.8-0.8h-18.5h-39.8v6h6.2V74h-6.2
	h-5.8l-8.5-17.4c6.6-1.6,9.9-5.6,9.9-11.9c0-3-0.8-5.6-2.3-7.6c-1.6-2-3.5-3.4-5.9-4s-5.6-0.9-9.7-0.9H93.9h-19v6h6L71.2,53
	L60.6,38.2h6v-6H47v6h5.8L67,58.3v15.8h-6.4v6h20.2v-6h-6.5V58.3l13.3-20.1h6.3h6.6v35.9h-6.6v6h19.9v-6h-6.1V57.7h6.7l10.9,22.4
	h10.4h39.8V65.4h-5.9v8.7h-20.4V58.4H167v-6h-17.8V38.2h20.4v8.4h5.9v-8.4h6.5v34.3V74v6h10.9c5.2,0,9.4-0.3,12.7-1s6.2-1.9,8.6-3.6
	c2.4-1.7,4.4-4.3,5.9-7.8s2.2-7.6,2.2-12.3C222.3,51.2,221.5,47.5,220,44.2z M113.3,51.7h-5.6V38.2h6.1c2.5,0,4.4,0.1,5.6,0.4
	c1.2,0.3,2.3,1,3.1,2c0.8,1.1,1.3,2.4,1.3,4c0,1.8-0.4,3.3-1.2,4.4c-0.8,1.1-1.9,1.8-3.2,2.2C118.1,51.6,116,51.7,113.3,51.7z
	 M213.3,64.8c-1.1,2.6-2.4,4.5-4.1,5.8c-1.7,1.3-3.8,2.2-6.2,2.7c-2.5,0.5-5.8,0.8-10,0.8h-3.8V38.2h4.1c5.6,0,9.7,0.4,12.4,1.3
	c2.7,0.9,4.9,2.8,6.6,5.7c1.7,2.9,2.6,6.4,2.6,10.6C214.9,59.2,214.4,62.3,213.3,64.8z"/>
</svg>
