<?xml version="1.0" encoding="utf-8"?>
<!-- Generator: Adobe Illustrator 16.0.0, SVG Export Plug-In . SVG Version: 6.00 Build 0)  -->
<!DOCTYPE svg PUBLIC "-//W3C//DTD SVG 1.1//EN" "http://www.w3.org/Graphics/SVG/1.1/DTD/svg11.dtd">
<svg version="1.1" id="Layer_1" xmlns="http://www.w3.org/2000/svg" xmlns:xlink="http://www.w3.org/1999/xlink" x="0px" y="0px"
	 width="250px" height="125px" viewBox="0 0 250 125" enable-background="new 0 0 250 125" xml:space="preserve">
<path fill="none" d="M51.711,35.066h-4.955c-1.086,0-1.966,0.88-1.966,1.966v5.27h8.887v-5.27
	C53.677,35.946,52.796,35.066,51.711,35.066z"/>
<path fill="none" d="M52.561,43.457h-6.64c-1.035,0-1.874,1.024-1.874,2.288v38.308h10.389V45.745
	C54.436,44.481,53.596,43.457,52.561,43.457z"/>
<path d="M83.324,2.836h-9.941c-0.656,0-1.002,0.31-1.17,0.779H60.965c-1.656,0-2.231,0.785-3.203,1.736
	c-0.719,0.703-1.781,2.391-3.859,2.391c-2.313,0-2.313,0-2.313,0s0.344-1.359-2.344-1.359s-2.344,1.359-2.344,1.359s0,0-2.313,0
	c-2.078,0-3.141-1.688-3.859-2.391c-0.972-0.951-1.547-1.736-3.203-1.736H26.281c-0.168-0.47-0.515-0.779-1.17-0.779h-9.941
	c-1.051,0-1.313,0.794-1.313,1.772c0,0.98,0.262,1.774,1.313,1.774h9.941c0.428,0,0.719-0.137,0.92-0.358l5.521,0.007
	c0,0-0.201,2.523-4.867,2.523c-3.841,0-4.301,0-4.344,0L20.606,9.93h2.141c0,0-0.234-0.406,6.953-0.406
	c4.077,0,4.734-3.487,4.734-3.489l3.406,0.005c0,0,0.712,0.819,1.922,2.063c1.111,1.142,3,2.047,4.844,2.047h2.969
	c0,0,0,5.578,0,6.922s-1.156,3.344-1.156,6.531s0,6.052,0,7.094c0,1.041,1.156,0.646,1.156,1c0,0.354,0,0.979,0,0.979h-2.14
	c-1.67,0-3.024,1.354-3.024,3.024v5.969c-0.558,0.51-0.914,1.235-0.914,2.05v38.893h-2.188V72.34v-1.418h-1.417h-0.739
	c-0.222-0.301-0.562-0.51-0.964-0.51h-6.457c-0.673,0-1.219,0.547-1.219,1.219c0,0.674,0.546,1.219,1.219,1.219h6.457
	c0.403,0,0.744-0.209,0.965-0.51h0.738v10.27v1.418v0.025h1.417v-0.025h2.188v0.025c0,0.83,0.672,1.5,1.5,1.5
	c0.829,0,1.501-0.67,1.501-1.5v-0.025h1.343v34.729v0.002c0,1.881,1.525,3.406,3.406,3.406s3.406-1.525,3.406-3.406v-0.002V84.027
	h1.343v0.025c0,0.83,0.672,1.5,1.5,1.5c0.829,0,1.5-0.67,1.5-1.5v-0.025h2.186v10.295v1.418h1.417h0.74
	c0.222,0.301,0.562,0.51,0.965,0.51h6.457c0.673,0,1.219-0.545,1.219-1.219c0-0.672-0.546-1.219-1.219-1.219h-6.457
	c-0.402,0-0.742,0.209-0.964,0.51h-0.741V84.027v-1.418h-1.417h-2.186V43.717c0-0.814-0.356-1.54-0.914-2.05v-5.969
	c0-1.67-1.354-3.024-3.024-3.024h-2.14c0,0,0-0.625,0-0.979c0-0.354,1.156,0.041,1.156-1c0-1.042,0-3.906,0-7.094
	s-1.156-5.188-1.156-6.531s0-6.922,0-6.922h2.969c1.844,0,3.732-0.905,4.844-2.047c1.21-1.243,1.922-2.063,1.922-2.063l3.406-0.005
	c0,0.002,0.657,3.489,4.734,3.489c7.188,0,6.953,0.406,6.953,0.406h2.141l-1.734-1.375c-0.043,0-0.502,0-4.344,0
	c-4.667,0-4.867-2.523-4.867-2.523l5.521-0.007c0.201,0.222,0.492,0.358,0.92,0.358h9.941c1.051,0,1.313-0.794,1.313-1.774
	C84.637,3.63,84.375,2.836,83.324,2.836z M53.996,82.609h-1.343V47.88c0-1.881-1.525-3.406-3.406-3.406s-3.406,1.525-3.406,3.406
	v34.729h-1.343V45.746c0-1.264,0.839-2.288,1.874-2.288h5.75c1.035,0,1.875,1.024,1.875,2.288V82.609z M51.724,35.066
	c1.085,0,1.966,0.88,1.966,1.966v3.896h-8.887v-3.896c0-1.086,0.88-1.966,1.966-1.966H51.724z"/>
<path d="M233.824,47.085c-1.549-3.244-3.615-5.794-6.205-7.651c-2.594-1.857-5.268-3.049-8.031-3.577
	c-2.764-0.526-6.701-0.79-11.813-0.79h-18.5H149.52v5.982h6.191v35.867h-6.191h-5.844l-8.451-17.402
	c6.572-1.626,9.857-5.604,9.857-11.932c0-3.025-0.775-5.553-2.336-7.581c-1.559-2.028-3.531-3.358-5.914-3.988
	c-2.385-0.631-5.608-0.946-9.665-0.946h-19.43H88.687v5.982h6.004l-9.649,14.788L74.476,41.049h6.026v-5.982H60.831v5.982h5.847
	l14.237,20.083v15.784h-6.431v5.986H94.67v-5.986h-6.534V61.132l13.273-20.083h6.328h6.567v35.867h-6.567v5.986h19.91v-5.986h-6.12
	V60.548h6.739l10.893,22.354h10.359h39.756V68.214h-5.918v8.702h-20.426V61.271h17.781v-5.983h-17.781V41.049h20.426v8.427h5.918
	v-8.427h6.498v34.318v1.549v5.986h10.902c5.158,0,9.402-0.342,12.74-1.016c3.338-0.676,6.211-1.873,8.631-3.594
	c2.42-1.719,4.375-4.322,5.865-7.807c1.49-3.485,2.232-7.587,2.232-12.311C236.145,54.026,235.371,50.329,233.824,47.085z
	 M127.167,54.564h-5.64V41.049h6.12c2.523,0,4.396,0.145,5.624,0.431c1.229,0.287,2.26,0.969,3.096,2.046
	c0.836,1.078,1.256,2.396,1.256,3.955c0,1.835-0.412,3.296-1.238,4.385c-0.828,1.09-1.885,1.813-3.182,2.166
	C131.908,54.387,129.894,54.564,127.167,54.564z M227.172,67.667c-1.057,2.567-2.43,4.487-4.129,5.759
	c-1.693,1.273-3.775,2.174-6.242,2.701c-2.463,0.527-5.805,0.789-10.023,0.789h-3.781V41.049h4.094
	c5.592,0,9.734,0.443,12.428,1.325c2.697,0.883,4.906,2.77,6.639,5.657c1.732,2.889,2.598,6.408,2.598,10.558
	C228.754,62.073,228.225,65.099,227.172,67.667z"/>
</svg>
