<?xml version="1.0" encoding="utf-8"?>
<!-- Generator: Adobe Illustrator 16.0.0, SVG Export Plug-In . SVG Version: 6.00 Build 0)  -->
<!DOCTYPE svg PUBLIC "-//W3C//DTD SVG 1.1//EN" "http://www.w3.org/Graphics/SVG/1.1/DTD/svg11.dtd">
<svg version="1.1" id="Layer_1" xmlns="http://www.w3.org/2000/svg" xmlns:xlink="http://www.w3.org/1999/xlink" x="0px" y="0px"
	 width="222.289px" height="119.328px" viewBox="0 0 222.289 119.328" enable-background="new 0 0 222.289 119.328"
	 xml:space="preserve">
<path fill="none" d="M37.855,32.23H32.9c-1.086,0-1.966,0.88-1.966,1.966v5.27h8.887v-5.27C39.821,33.11,38.94,32.23,37.855,32.23z"
	/>
<path fill="none" d="M38.705,40.621h-6.64c-1.035,0-1.874,1.024-1.874,2.288v38.308H40.58V42.909
	C40.58,41.646,39.74,40.621,38.705,40.621z"/>
<path fill="#F1BE54" d="M69.468,0h-9.941c-0.656,0-1.002,0.31-1.17,0.779H47.109c-1.656,0-2.231,0.785-3.203,1.736
	c-0.719,0.703-1.781,2.391-3.859,2.391c-2.313,0-2.313,0-2.313,0s0.344-1.359-2.344-1.359s-2.344,1.359-2.344,1.359s0,0-2.313,0
	c-2.078,0-3.141-1.688-3.859-2.391c-0.972-0.951-1.547-1.736-3.203-1.736H12.425C12.257,0.31,11.91,0,11.254,0H1.313
	C0.262,0,0,0.794,0,1.772c0,0.98,0.262,1.774,1.313,1.774h9.941c0.428,0,0.719-0.137,0.92-0.358l5.521,0.007
	c0,0-0.201,2.523-4.867,2.523c-3.841,0-4.301,0-4.344,0L6.75,7.094h2.141c0,0-0.234-0.406,6.953-0.406
	c4.077,0,4.734-3.487,4.734-3.489l3.406,0.005c0,0,0.712,0.819,1.922,2.063c1.111,1.142,3,2.047,4.844,2.047h2.969
	c0,0,0,5.578,0,6.922s-1.156,3.344-1.156,6.531s0,6.052,0,7.094c0,1.041,1.156,0.646,1.156,1c0,0.354,0,0.979,0,0.979h-2.14
	c-1.67,0-3.024,1.354-3.024,3.024v5.969c-0.558,0.51-0.914,1.235-0.914,2.05v38.893h-2.188v-10.27v-1.418h-1.417h-0.739
	c-0.222-0.301-0.562-0.51-0.964-0.51h-6.457c-0.673,0-1.219,0.547-1.219,1.219c0,0.674,0.546,1.219,1.219,1.219h6.457
	c0.403,0,0.744-0.209,0.965-0.51h0.738v10.27v1.418v0.025h1.417v-0.025h2.188v0.025c0,0.83,0.672,1.5,1.5,1.5
	c0.829,0,1.501-0.67,1.501-1.5v-0.025h1.343v34.729v0.002c0,1.881,1.525,3.406,3.406,3.406s3.406-1.525,3.406-3.406v-0.002V81.191
	h1.343v0.025c0,0.83,0.672,1.5,1.5,1.5c0.829,0,1.5-0.67,1.5-1.5v-0.025h2.186v10.295v1.418h1.417h0.74
	c0.222,0.301,0.562,0.51,0.965,0.51h6.457c0.673,0,1.219-0.545,1.219-1.219c0-0.672-0.546-1.219-1.219-1.219h-6.457
	c-0.402,0-0.742,0.209-0.964,0.51h-0.741V81.191v-1.418h-1.417h-2.186V40.881c0-0.814-0.356-1.54-0.914-2.05v-5.969
	c0-1.67-1.354-3.024-3.024-3.024h-2.14c0,0,0-0.625,0-0.979c0-0.354,1.156,0.041,1.156-1c0-1.042,0-3.906,0-7.094
	s-1.156-5.188-1.156-6.531s0-6.922,0-6.922h2.969c1.844,0,3.732-0.905,4.844-2.047c1.21-1.243,1.922-2.063,1.922-2.063l3.406-0.005
	c0,0.002,0.657,3.489,4.734,3.489c7.188,0,6.953,0.406,6.953,0.406h2.141l-1.734-1.375c-0.043,0-0.502,0-4.344,0
	c-4.667,0-4.867-2.523-4.867-2.523l5.521-0.007c0.201,0.222,0.492,0.358,0.92,0.358h9.941c1.051,0,1.313-0.794,1.313-1.774
	C70.781,0.794,70.519,0,69.468,0z M40.14,79.773h-1.343V45.044c0-1.881-1.525-3.406-3.406-3.406s-3.406,1.525-3.406,3.406v34.729
	h-1.343V42.91c0-1.264,0.839-2.288,1.874-2.288h5.75c1.035,0,1.875,1.024,1.875,2.288V79.773z M37.868,32.23
	c1.085,0,1.966,0.88,1.966,1.966v3.896h-8.887v-3.896c0-1.086,0.88-1.966,1.966-1.966H37.868z"/>
<path fill="#F1BE54" d="M219.969,44.249c-1.549-3.244-3.615-5.794-6.205-7.651c-2.594-1.857-5.268-3.049-8.031-3.577
	c-2.764-0.526-6.701-0.79-11.813-0.79h-18.5h-39.756v5.982h6.191V74.08h-6.191h-5.844l-8.451-17.402
	c6.572-1.626,9.857-5.604,9.857-11.932c0-3.025-0.775-5.553-2.336-7.581c-1.559-2.028-3.531-3.358-5.914-3.988
	c-2.385-0.631-5.608-0.946-9.665-0.946h-19.43H74.831v5.982h6.004l-9.649,14.788L60.62,38.213h6.026V32.23H46.975v5.982h5.847
	l14.237,20.083V74.08h-6.431v5.986h20.186V74.08h-6.534V58.296l13.273-20.083h6.328h6.567V74.08h-6.567v5.986h19.91V74.08h-6.12
	V57.712h6.739l10.893,22.354h10.36h39.756V65.378h-5.918v8.702h-20.426V58.435h17.781v-5.983h-17.781V38.213h20.426v8.427h5.918
	v-8.427h6.498v34.318v1.549v5.986h10.902c5.158,0,9.402-0.342,12.74-1.016c3.338-0.676,6.211-1.873,8.631-3.594
	c2.42-1.719,4.375-4.322,5.865-7.807c1.49-3.485,2.232-7.587,2.232-12.311C222.289,51.19,221.516,47.493,219.969,44.249z
	 M113.312,51.729h-5.64V38.213h6.12c2.523,0,4.396,0.145,5.624,0.431c1.229,0.287,2.26,0.969,3.096,2.046
	c0.836,1.078,1.256,2.396,1.256,3.955c0,1.835-0.412,3.296-1.238,4.385c-0.828,1.09-1.885,1.813-3.182,2.166
	C118.052,51.551,116.038,51.729,113.312,51.729z M213.316,64.831c-1.057,2.567-2.43,4.487-4.129,5.759
	c-1.693,1.273-3.775,2.174-6.242,2.701c-2.463,0.527-5.805,0.789-10.023,0.789h-3.781V38.213h4.094
	c5.592,0,9.734,0.443,12.428,1.325c2.697,0.883,4.906,2.77,6.639,5.657c1.732,2.889,2.598,6.408,2.598,10.558
	C214.898,59.237,214.369,62.263,213.316,64.831z"/>
</svg>
